<?xml version="1.0" encoding="UTF-8" standalone="no"?>
<svg
   version="1.1"
   width="554"
   height="191"
   id="svg36"
   sodipodi:docname="breeze-virtual-logo.svg"
   inkscape:version="1.2.2 (732a01da63, 2022-12-09)"
   xmlns:inkscape="http://www.inkscape.org/namespaces/inkscape"
   xmlns:sodipodi="http://sodipodi.sourceforge.net/DTD/sodipodi-0.dtd"
   xmlns="http://www.w3.org/2000/svg"
   xmlns:svg="http://www.w3.org/2000/svg">
  <defs
     id="defs40" />
  <sodipodi:namedview
     id="namedview38"
     pagecolor="#505050"
     bordercolor="#eeeeee"
     borderopacity="1"
     inkscape:showpageshadow="0"
     inkscape:pageopacity="0"
     inkscape:pagecheckerboard="0"
     inkscape:deskcolor="#505050"
     showgrid="false"
     inkscape:zoom="2.4712042"
     inkscape:cx="223.77754"
     inkscape:cy="80.932203"
     inkscape:window-width="2498"
     inkscape:window-height="1577"
     inkscape:window-x="-8"
     inkscape:window-y="-8"
     inkscape:window-maximized="1"
     inkscape:current-layer="svg36" />
  <path
     d="M24.1978 161.368C23.9322 160.137 23.938 97.9001 24.1916 96.7584C24.4497 96.7138 24.736 96.6475 25.026 96.6196C25.2837 96.5947 25.5456 96.6123 25.8057 96.6123C44.0536 96.6123 62.3016 96.6044 80.5494 96.6184C84.5128 96.6214 88.4192 97.105 92.2187 98.2798C94.0899 98.8583 95.868 99.6439 97.5101 100.72C101.774 103.515 103.938 107.486 104.177 112.529C104.257 114.217 104.145 115.896 103.745 117.543C102.965 120.761 101.239 123.292 98.279 124.913C98.0635 125.031 97.863 125.176 97.481 125.42C97.9552 125.521 98.2327 125.596 98.5148 125.638C102.75 126.261 106.639 127.755 110.095 130.282C112.804 132.263 114.922 134.722 116.089 137.921C117.097 140.685 117.05 143.518 116.613 146.356C115.755 151.92 112.604 155.78 107.55 158.174C104.383 159.673 101.009 160.426 97.5591 160.893C94.5479 161.3 91.5179 161.442 88.4817 161.443C67.5897 161.446 46.6978 161.445 25.8058 161.441C25.2573 161.441 24.7088 161.393 24.1978 161.368ZM45.0044 145.007C45.6604 145.03 46.1689 145.063 46.6774 145.063C59.7619 145.066 72.8467 145.07 85.9312 145.058C86.9251 145.057 87.9265 145.002 88.9092 144.865C89.6297 144.764 90.3517 144.55 91.0264 144.274C92.313 143.748 93.0957 142.768 93.4061 141.403C94.0488 138.579 92.6606 136.183 89.8752 135.392C88.4888 134.999 87.0592 134.929 85.6256 134.929C76.4404 134.93 67.255 134.929 58.0699 134.929C54.214 134.93 50.3577 134.927 46.5017 134.933C46.0418 134.934 45.582 134.984 44.9975 135.019C44.9763 138.362 44.9739 141.584 45.0044 145.007ZM45.1622 122.057C45.6329 122.079 46.1373 122.125 46.6416 122.126C56.2557 122.13 65.8698 122.131 75.4839 122.124C76.2622 122.123 77.0514 122.128 77.816 122.007C78.6633 121.872 79.5212 121.678 80.3154 121.363C81.8087 120.77 82.6152 119.588 82.8334 118.015C82.8924 117.591 82.8983 117.154 82.8812 116.725C82.8052 114.799 81.8439 113.413 80.0016 112.853C79.0236 112.556 77.9631 112.404 76.939 112.401C66.7621 112.369 56.5848 112.381 46.4079 112.384C45.9863 112.384 45.5647 112.426 45.1737 112.447C44.9263 113.594 44.9168 120.788 45.1622 122.057Z"
     fill="#001633"
     id="path22" />
  <path
     d="M528.932 139.552C528.225 139.575 527.673 139.609 527.118 139.609C508.175 139.612 489.234 139.611 470.291 139.614C469.739 139.614 469.184 139.649 468.541 139.671C468.6 140.07 468.611 140.362 468.685 140.637C469.554 143.876 471.55 146.195 474.542 147.69C476.659 148.748 478.923 149.323 481.254 149.632C486.965 150.39 492.661 150.378 498.321 149.184C500.324 148.762 502.279 148.165 504.067 147.172C505.159 146.566 506.219 145.869 507.168 145.066C507.784 144.544 508.304 144.452 509.044 144.643C511.601 145.306 514.176 145.911 516.742 146.541C519.687 147.264 522.632 147.988 525.577 148.719C525.938 148.809 526.287 148.943 526.757 149.094C526.478 149.592 526.287 149.971 526.064 150.331C524.537 152.804 522.47 154.742 520.033 156.308C517.241 158.104 514.185 159.303 510.996 160.186C507.646 161.114 504.232 161.702 500.776 162.044C496.551 162.463 492.317 162.822 488.063 162.745C482.335 162.64 476.633 162.232 470.998 161.177C467.234 160.473 463.591 159.371 460.188 157.575C454.19 154.41 450.446 149.525 449.028 142.923C447.915 137.747 447.93 132.549 449.096 127.38C450.505 121.138 454.013 116.429 459.639 113.303C463.318 111.259 467.302 110.114 471.409 109.344C476.324 108.422 481.295 108.092 486.283 108.027C491.486 107.959 496.686 108.031 501.868 108.584C506.275 109.055 510.62 109.809 514.781 111.402C517.473 112.434 519.96 113.812 522.092 115.774C524.813 118.277 526.531 121.376 527.547 124.887C528.442 127.975 528.8 131.143 528.921 134.342C528.968 135.635 528.982 136.93 529 138.224C529.003 138.605 528.962 138.986 528.932 139.552ZM508.427 128.937C508.462 128.78 508.515 128.691 508.498 128.618C508.436 128.368 508.371 128.117 508.274 127.88C507.438 125.843 505.99 124.347 504.094 123.262C502.426 122.307 500.626 121.694 498.744 121.34C492.47 120.158 486.172 120.192 479.877 121.145C477.602 121.49 475.405 122.165 473.406 123.358C471.527 124.478 470.121 126.009 469.301 128.046C469.193 128.31 469.166 128.605 469.099 128.889C470.382 129.131 500.547 129.246 507.593 129.045C507.881 129.036 508.166 128.971 508.427 128.937Z"
     fill="#001633"
     id="path24" />
  <path
     d="M204.055 139.668C204.522 141.895 205.358 143.698 206.785 145.221C208.657 147.22 211.038 148.34 213.642 148.969C215.406 149.395 217.211 149.719 219.017 149.884C223.914 150.332 228.802 150.266 233.641 149.246C235.728 148.806 237.775 148.22 239.643 147.183C240.771 146.557 241.834 145.797 242.855 145.007C243.339 144.632 243.732 144.416 244.363 144.573C250.083 145.992 255.81 147.385 261.533 148.794C261.774 148.853 261.997 148.988 262.334 149.133C262.096 149.567 261.91 149.946 261.689 150.304C260.137 152.815 258.038 154.781 255.557 156.361C252.755 158.146 249.693 159.329 246.504 160.213C242.816 161.235 239.049 161.818 235.244 162.162C231.36 162.515 227.472 162.833 223.564 162.743C217.446 162.601 211.354 162.184 205.351 160.918C202.502 160.318 199.734 159.451 197.09 158.222C190.307 155.068 186.026 149.909 184.558 142.558C183.53 137.414 183.559 132.259 184.762 127.141C186.373 120.287 190.507 115.469 196.85 112.472C200.565 110.717 204.505 109.728 208.545 109.078C212.962 108.367 217.415 108.084 221.883 108.027C227.087 107.96 232.288 108.03 237.469 108.582C241.877 109.052 246.225 109.806 250.385 111.401C253.413 112.562 256.164 114.158 258.441 116.5C261.281 119.421 262.819 122.99 263.659 126.899C264.507 130.849 264.629 134.858 264.553 138.879C264.55 139.047 264.491 139.213 264.446 139.443C264.154 139.498 263.869 139.581 263.579 139.6C263.147 139.627 262.712 139.611 262.278 139.611C243.55 139.611 224.821 139.61 206.092 139.613C205.493 139.613 204.894 139.644 204.055 139.668ZM244.097 128.905C244.106 128.709 244.128 128.621 244.111 128.541C244.084 128.415 244.035 128.294 243.99 128.173C243.227 126.104 241.833 124.559 239.967 123.42C237.863 122.136 235.532 121.467 233.123 121.103C227.347 120.229 221.558 120.227 215.781 121.094C213.414 121.449 211.13 122.111 209.046 123.337C207.282 124.374 205.919 125.781 205.075 127.654C204.904 128.033 204.795 128.44 204.654 128.845C205.732 129.097 242.778 129.135 244.097 128.905Z"
     fill="#001633"
     id="path26" />
  <path
     d="M354.525 139.88C353.844 139.904 353.248 139.944 352.652 139.944C333.75 139.947 314.848 139.946 295.945 139.948C295.395 139.948 294.844 139.967 294.167 139.979C294.658 142.493 295.707 144.514 297.477 146.154C298.569 147.166 299.842 147.896 301.208 148.475C303.302 149.361 305.503 149.828 307.748 150.093C312.901 150.699 318.048 150.703 323.154 149.695C324.763 149.378 326.351 148.9 327.901 148.363C329.798 147.705 331.527 146.71 333.01 145.339C333.421 144.96 333.809 144.746 334.399 144.893C340.159 146.328 345.923 147.743 351.683 149.168C351.889 149.218 352.08 149.317 352.359 149.425C352.235 149.74 352.162 150.024 352.021 150.268C350.157 153.457 347.461 155.774 344.255 157.539C340.65 159.523 336.754 160.684 332.737 161.457C326.11 162.731 319.407 163.071 312.675 162.987C308.815 162.939 304.965 162.698 301.135 162.22C297.299 161.741 293.52 160.993 289.878 159.665C286.591 158.467 283.55 156.845 280.96 154.463C277.627 151.396 275.659 147.563 274.714 143.196C273.516 137.663 273.598 132.142 275.083 126.661C276.685 120.75 280.261 116.405 285.638 113.493C289.338 111.489 293.33 110.372 297.443 109.622C302.319 108.733 307.25 108.43 312.194 108.342C316.921 108.258 321.645 108.374 326.354 108.806C331.072 109.239 335.735 109.957 340.189 111.648C341.36 112.093 342.511 112.611 343.621 113.192C348.307 115.644 351.399 119.438 353.01 124.44C354.147 127.966 354.549 131.604 354.622 135.287C354.646 136.409 354.634 137.532 354.622 138.654C354.619 139.028 354.567 139.403 354.525 139.88ZM334.252 129.383C334.138 128.336 333.762 127.657 333.365 126.995C332.214 125.062 330.479 123.813 328.453 122.922C326.574 122.096 324.592 121.627 322.572 121.341C317.74 120.656 312.893 120.653 308.046 121.135C305.493 121.389 302.987 121.891 300.619 122.927C298.061 124.045 296.078 125.759 295.012 128.394C294.906 128.656 294.875 128.947 294.771 129.383C307.959 129.383 321.031 129.383 334.252 129.383Z"
     fill="#001633"
     id="path28" />
  <path
     d="M440.396 109.671C440.422 110.147 440.466 110.567 440.466 110.988C440.472 114.441 440.44 117.894 440.49 121.347C440.505 122.28 440.211 122.816 439.371 123.279C430.123 128.387 420.895 133.534 411.664 138.672C406.138 141.745 400.613 144.818 395.09 147.895C394.802 148.056 394.532 148.251 393.977 148.607C395.997 148.734 397.706 148.66 399.412 148.674C401.1 148.687 402.791 148.677 404.482 148.677C406.217 148.677 407.953 148.677 409.685 148.677C411.42 148.677 413.155 148.677 414.888 148.677C416.579 148.677 418.27 148.677 419.961 148.677C421.696 148.677 423.429 148.677 425.164 148.677C426.896 148.677 428.631 148.677 430.366 148.677C432.058 148.677 433.749 148.677 435.437 148.677C437.166 148.677 438.893 148.677 440.646 148.677C440.734 149.04 440.842 149.283 440.842 149.527C440.854 153.325 440.851 157.124 440.845 160.922C440.845 161.131 440.792 161.34 440.754 161.623C440.443 161.678 440.161 161.749 439.876 161.774C439.574 161.799 439.269 161.781 438.966 161.781C414.08 161.781 389.194 161.781 364.308 161.781C363.753 161.781 363.196 161.781 362.523 161.781C362.485 161.244 362.432 160.829 362.432 160.413C362.423 156.657 362.459 152.902 362.406 149.147C362.394 148.189 362.758 147.698 363.577 147.249C377.929 139.378 392.262 131.476 406.602 123.58C407.201 123.25 407.797 122.913 408.649 122.438C408.161 122.34 407.947 122.27 407.727 122.258C407.339 122.238 406.946 122.251 406.558 122.251C392.726 122.251 378.898 122.252 365.066 122.249C364.514 122.249 363.959 122.215 363.436 122.197C363.181 121.016 363.181 110.821 363.416 109.714C363.439 109.69 363.469 109.654 363.504 109.632C363.542 109.611 363.583 109.596 363.627 109.593C363.927 109.569 364.229 109.532 364.531 109.532C389.632 109.535 414.735 109.541 439.838 109.551C439.961 109.551 440.088 109.603 440.396 109.671Z"
     fill="#001633"
     id="path30" />
  <path
     d="M306.664 63.5479C307.227 63.5062 307.603 63.4528 307.979 63.4542C311.663 63.4686 315.348 63.4745 319.032 63.517C324.105 63.5754 328.788 64.9507 333.001 67.7848C333.929 68.4093 334.783 69.1597 335.603 69.9257C341.507 75.454 347.397 81.0019 353.292 86.5413C353.603 86.833 353.935 87.1039 354.311 87.434C354.649 87.1523 354.951 86.9237 355.224 86.6654C368.783 73.9273 382.339 61.1868 395.894 48.4464C397.63 46.8168 399.385 45.2094 401.091 43.5514C404.914 39.8346 409.324 36.9568 414.068 34.5698C420.396 31.3845 427.099 29.4021 434.139 28.5573C435.854 28.3516 437.574 28.183 439.266 28C439.515 28.5671 439.092 28.7107 438.875 28.9173C434.794 32.7882 430.707 36.6511 426.617 40.5123C404.879 61.036 383.137 81.5583 361.399 102.084C359.479 103.895 357.582 105.729 355.665 107.546C355.295 107.898 354.892 108.219 354.528 108.535C353.539 107.927 307.606 64.7837 306.664 63.5479Z"
     fill="#1F74DF"
     id="path32" />
  <path
     d="M126.414 109.36C127.805 109.076 143.495 109.094 144.626 109.36C145.09 112.099 145.179 114.933 145.621 117.788C145.858 117.675 145.994 117.646 146.078 117.565C148.918 114.774 152.388 113.03 156.068 111.659C161.052 109.803 166.219 108.73 171.515 108.281C173.154 108.142 174.802 108.097 176.447 108.022C176.698 108.01 176.953 108.068 177.324 108.106C177.519 109.447 177.396 110.775 177.418 112.094C177.44 113.432 177.423 114.77 177.423 116.108C177.423 117.446 177.426 118.785 177.422 120.123C177.418 121.453 177.406 122.783 177.398 124.212C176.852 124.248 176.429 124.295 176.006 124.301C172.233 124.353 168.466 124.48 164.716 124.94C160.966 125.401 157.255 126.04 153.7 127.376C151.823 128.081 150.066 128.991 148.522 130.297C147.744 130.955 147.383 131.678 147.388 132.743C147.43 141.721 147.412 150.7 147.412 159.679C147.412 160.19 147.412 160.701 147.412 161.296C146.977 161.357 146.649 161.443 146.321 161.443C140.078 161.452 133.834 161.451 127.591 161.445C127.257 161.445 126.923 161.378 126.539 161.336C126.492 160.983 126.419 160.692 126.419 160.402C126.413 143.403 126.414 126.404 126.414 109.36Z"
     fill="#001633"
     id="path34" />
  <text
     xml:space="preserve"
     style="font-size:50.1085px;fill:#1f74df;fill-opacity:1;stroke-width:4.17571"
     x="421.82462"
     y="100.12072"
     id="text254"
     transform="scale(0.95763331,1.044241)"><tspan
       sodipodi:role="line"
       id="tspan252"
       x="421.82462"
       y="100.12072"
       style="font-style:normal;font-variant:normal;font-weight:bold;font-stretch:normal;font-family:Ubuntu;-inkscape-font-specification:Ubuntu;fill:#1f74df;fill-opacity:1;stroke-width:4.17571">irtual</tspan></text>
</svg>
