<svg version="1.1" width="90" height="51" xmlns="http://www.w3.org/2000/svg">
    <path d="M0 22.4517C0.381902 22.4254 0.636957 22.3917 0.89201 22.3926C3.39099 22.4017 5.89065 22.4054 8.38963 22.4322C11.8308 22.4691 15.0075 23.3377 17.8653 25.1277C18.4948 25.5222 19.0741 25.9961 19.6303 26.4799C23.6352 29.9715 27.6305 33.4755 31.6293 36.9742C31.8403 37.1584 32.0655 37.3295 32.3206 37.538C32.5498 37.3601 32.7547 37.2157 32.9399 37.0525C42.1374 29.0073 51.3329 20.9605 60.5277 12.9138C61.7053 11.8845 62.8957 10.8693 64.053 9.82213C66.6463 7.47463 69.6377 5.65704 72.8557 4.14943C77.1482 2.13762 81.6951 0.885554 86.4705 0.351986C87.6339 0.222068 88.8006 0.115581 89.9484 0C90.1173 0.358175 89.8303 0.448871 89.6831 0.579358C86.9149 3.02418 84.1425 5.46396 81.3681 7.90266C66.6225 20.8652 51.8742 33.8269 37.1286 46.7908C35.8262 47.9346 34.5394 49.0929 33.239 50.2405C32.988 50.4629 32.7147 50.6656 32.4678 50.8652C31.7969 50.4812 0.63899 23.2323 0 22.4517Z" fill="#1F74DF"/>
</svg>